<svg width="64" height="64" viewBox="0 0 64 64" fill="none" xmlns="http://www.w3.org/2000/svg">
  <!-- Background gradient -->
  <defs>
    <linearGradient id="bgGradient" x1="0%" y1="0%" x2="100%" y2="100%">
      <stop offset="0%" style="stop-color:#0F56B1;stop-opacity:1" />
      <stop offset="100%" style="stop-color:#1E88F7;stop-opacity:1" />
    </linearGradient>
  </defs>

  <!-- Rounded square background -->
  <rect width="64" height="64" rx="12" fill="url(#bgGradient)"/>

  <!-- Music note icon -->
  <path d="M42 14 L42 40 C42 43.866 38.866 47 35 47 C31.134 47 28 43.866 28 40 C28 36.134 31.134 33 35 33 C36.105 33 37.145 33.27 38.058 33.744 L38.058 14 L48 11 L48 30 C48 33.866 44.866 37 41 37 C37.134 37 34 33.866 34 30 C34 26.134 37.134 23 41 23 C42.105 23 43.145 23.27 44.058 23.744 L44.058 11.5 L42 12.2 Z" fill="white"/>

  <!-- Additional smaller note -->
  <circle cx="22" cy="44" r="3" fill="white"/>
  <rect x="21" y="30" width="2" height="14" fill="white"/>
</svg>
