<svg xmlns="http://www.w3.org/2000/svg" viewBox="0 0 410 404">
  <defs>
    <linearGradient id="a" x1="3.4%" x2="96.7%" y1="2.7%" y2="99.2%">
      <stop stop-color="#41D1FF" />
      <stop offset="1" stop-color="#BD34FE" />
    </linearGradient>
    <linearGradient id="b" x1="14.8%" x2="87.4%" y1="17.7%" y2="90.9%">
      <stop stop-color="#FFEA83" />
      <stop offset="0.083" stop-color="#FFDD35" />
      <stop offset="1" stop-color="#FFA800" />
    </linearGradient>
  </defs>
  <path fill="url(#a)" d="M399.6 59.5L215.4 388.3c-6.4 11.4-22.8 11.5-29.3 0.2L9.6 59.6C2.8 47.8 11 33 24.4 32.9l361.2-.3c13.4 0 21.5 14.8 14.8 26.6z" />
  <path fill="url(#b)" d="M283.1 1.3L156.5 276.3c-2.9 6.3-11.9 4.8-12.7-2l-10.7-92.2c-.2-1.4.2-2.8 1-4L234.2 6c3.8-6 13.4-3.8 14 3.2l3.6 40.5c.1 1.5.8 3 1.9 4l45.8 41.6c5.5 5 2 13.9-5.3 13.7l-63-1.7c-1.6 0-3.2.6-4.3 1.8L147.8 194c-4 4.4-11.3 1.6-10.8-4.4l7.7-84.7c.1-1.7-.6-3.3-2-4.4l-43.2-36.1c-5.8-4.8-2.5-14.2 5-14.2l59.2.2c1.6 0 3.1-.6 4.2-1.8L264.4 1.2c4.7-5.2 13.4-2.5 13.5 4.4z" />
</svg>
